<?xml version="1.0" encoding="UTF-8"?>
<svg xmlns="http://www.w3.org/2000/svg" xmlns:xlink="http://www.w3.org/1999/xlink" width="30px" height="30px" viewBox="0 0 30 30" version="1.1">
<g id="surface1">
<path style=" stroke:none;fill-rule:nonzero;fill:rgb(0%,0%,0%);fill-opacity:1;" d="M 13.398438 0.109375 C 8.128906 0.660156 3.421875 4.128906 1.28125 9.039062 C -0.101562 12.210938 -0.328125 15.859375 0.648438 19.21875 C 1.859375 23.410156 4.988281 26.949219 9.039062 28.71875 C 12.210938 30.101562 15.859375 30.328125 19.21875 29.351562 C 24.25 27.898438 28.210938 23.769531 29.511719 18.640625 C 31.539062 10.601562 26.558594 2.378906 18.5 0.460938 C 16.730469 0.0390625 15.171875 -0.0703125 13.398438 0.109375 Z M 13.601562 9.398438 C 14.878906 11.101562 15.960938 12.5 16 12.5 C 16.039062 12.5 17.371094 11.101562 18.941406 9.398438 L 21.808594 6.300781 L 23.441406 6.300781 L 23.089844 6.671875 C 22.890625 6.878906 21.589844 8.289062 20.199219 9.800781 C 18.808594 11.308594 17.449219 12.78125 17.179688 13.050781 L 16.699219 13.558594 L 20.449219 18.550781 C 22.511719 21.300781 24.199219 23.578125 24.199219 23.621094 C 24.199219 23.671875 22.96875 23.699219 21.480469 23.699219 L 18.75 23.691406 L 16.210938 20.289062 C 14.460938 17.941406 13.640625 16.929688 13.558594 16.988281 C 13.5 17.039062 12.078125 18.570312 10.398438 20.390625 L 7.351562 23.699219 L 6.578125 23.699219 C 6.148438 23.699219 5.800781 23.679688 5.800781 23.648438 C 5.800781 23.621094 7.390625 21.878906 9.328125 19.789062 C 11.261719 17.699219 12.859375 15.949219 12.878906 15.921875 C 12.890625 15.878906 11.300781 13.710938 9.351562 11.101562 C 7.398438 8.5 5.800781 6.351562 5.800781 6.328125 C 5.800781 6.308594 7.03125 6.300781 8.539062 6.300781 L 11.28125 6.300781 Z M 13.601562 9.398438 "/>
<path style=" stroke:none;fill-rule:nonzero;fill:rgb(0%,0%,0%);fill-opacity:1;" d="M 8.269531 7.640625 C 8.308594 7.710938 10.828125 11.089844 13.851562 15.128906 L 19.351562 22.488281 L 20.578125 22.5 C 21.339844 22.5 21.800781 22.460938 21.78125 22.398438 C 21.769531 22.351562 19.261719 18.96875 16.21875 14.898438 L 10.679688 7.5 L 9.441406 7.5 C 8.410156 7.5 8.199219 7.519531 8.269531 7.640625 Z M 8.269531 7.640625 "/>
</g>
</svg>
